<svg width="16" height="16" viewBox="0 0 16 16" fill="none" xmlns="http://www.w3.org/2000/svg">
<rect width="16" height="16" rx="4" fill="black"/>
<path d="M3.77777 11.2723L4.31855 11.3355C5.45349 11.468 6.55266 10.8871 7.08249 9.87475L8.82257 6.54991C9.4672 5.31819 10.878 4.69601 12.2222 5.05063V5.05063" stroke="white" stroke-width="2" stroke-linecap="square"/>
<rect width="16" height="16" rx="4" fill="black"/>
<path d="M8.58716 7.44323C7.81365 7.19711 7.1128 7.07522 7.1128 6.58299C7.1128 6.01809 7.68942 5.8587 8.18165 5.88214C8.67389 5.89386 9.22706 6.13998 9.47084 6.60643L10.3686 5.85635C9.96307 5.15551 8.99267 4.75 7.97304 4.75C6.66979 4.76172 5.63845 5.40163 5.63845 6.59236C5.63845 7.85811 6.71902 8.23783 7.65192 8.54489C8.39027 8.77929 9.05127 8.93867 9.05127 9.42856C9.05127 9.91845 8.58482 10.1411 7.88397 10.1177C7.24407 10.0802 6.59479 9.76141 6.36039 9.23402L5.43921 10.0333C5.88222 10.7576 6.87606 11.2498 8.05508 11.2498C9.43099 11.2616 10.5608 10.6591 10.5608 9.43091C10.5608 8.14173 9.51537 7.74794 8.58247 7.44088L8.58716 7.44323Z" fill="white"/>
<path d="M12.0353 4.92952C12.5681 4.92952 13 4.49758 13 3.96476C13 3.43194 12.5681 3 12.0353 3C11.5024 3 11.0705 3.43194 11.0705 3.96476C11.0705 4.49758 11.5024 4.92952 12.0353 4.92952Z" fill="white"/>
<path d="M3.96476 13C4.49758 13 4.92952 12.568 4.92952 12.0352C4.92952 11.5024 4.49758 11.0704 3.96476 11.0704C3.43194 11.0704 3 11.5024 3 12.0352C3 12.568 3.43194 13 3.96476 13Z" fill="white"/>
</svg>
