<svg width="15" height="14" viewBox="0 0 15 14" fill="none" xmlns="http://www.w3.org/2000/svg">
<g id="App">
<path id="Vector" d="M8.59293 1.42587C8.22105 1.31868 7.83387 1.53525 7.72668 1.90712L4.92668 11.7071C4.81949 12.079 5.03605 12.4662 5.40793 12.5734C5.7798 12.6806 6.16699 12.464 6.27418 12.0921L9.07418 2.29212C9.18137 1.92025 8.9648 1.53306 8.59293 1.42587ZM10.3561 4.05306C10.0826 4.3265 10.0826 4.77056 10.3561 5.044L12.3095 6.99962L10.3539 8.95525C10.0804 9.22868 10.0804 9.67275 10.3539 9.94618C10.6273 10.2196 11.0714 10.2196 11.3448 9.94618L13.7948 7.49618C14.0682 7.22275 14.0682 6.77868 13.7948 6.50525L11.3448 4.05525C11.0714 3.78181 10.6273 3.78181 10.3539 4.05525L10.3561 4.05306ZM3.64699 4.05306C3.37355 3.77962 2.92949 3.77962 2.65605 4.05306L0.206055 6.50306C-0.0673828 6.7765 -0.0673828 7.22056 0.206055 7.494L2.65605 9.944C2.92949 10.2174 3.37355 10.2174 3.64699 9.944C3.92043 9.67056 3.92043 9.2265 3.64699 8.95306L1.69137 6.99962L3.64699 5.044C3.92043 4.77056 3.92043 4.3265 3.64699 4.05306Z" fill="#0C0D16"/>
</g>
</svg>
