<svg width="15" height="14" viewBox="0 0 15 14" fill="none" xmlns="http://www.w3.org/2000/svg">
<g id="Github">
<path id="Vector" d="M5.25508 10.8664C5.25508 10.9211 5.19219 10.9648 5.11289 10.9648C5.02266 10.973 4.95977 10.9293 4.95977 10.8664C4.95977 10.8117 5.02266 10.768 5.10195 10.768C5.18398 10.7598 5.25508 10.8035 5.25508 10.8664ZM4.40469 10.7434C4.38555 10.798 4.44023 10.8609 4.52227 10.8773C4.59336 10.9047 4.67539 10.8773 4.6918 10.8227C4.7082 10.768 4.65625 10.7051 4.57422 10.6805C4.50312 10.6613 4.42383 10.6887 4.40469 10.7434ZM5.61328 10.6969C5.53398 10.716 5.4793 10.768 5.4875 10.8309C5.4957 10.8855 5.5668 10.9211 5.64883 10.902C5.72813 10.8828 5.78281 10.8309 5.77461 10.7762C5.76641 10.7242 5.69258 10.6887 5.61328 10.6969ZM7.4125 0.21875C3.61992 0.21875 0.71875 3.09805 0.71875 6.89062C0.71875 9.92305 2.62734 12.518 5.35352 13.4313C5.70352 13.4941 5.82656 13.2781 5.82656 13.1004C5.82656 12.9309 5.81836 11.9957 5.81836 11.4215C5.81836 11.4215 3.9043 11.8316 3.50234 10.6066C3.50234 10.6066 3.19062 9.81094 2.74219 9.60586C2.74219 9.60586 2.11602 9.17656 2.78594 9.18477C2.78594 9.18477 3.4668 9.23945 3.84141 9.89023C4.44023 10.9457 5.44375 10.6422 5.83477 10.4617C5.89766 10.0242 6.07539 9.7207 6.27227 9.54023C4.74375 9.3707 3.20156 9.14922 3.20156 6.51875C3.20156 5.7668 3.40937 5.38945 3.84687 4.9082C3.77578 4.73047 3.54336 3.99766 3.91797 3.05156C4.48945 2.87383 5.80469 3.78984 5.80469 3.78984C6.35156 3.63672 6.93945 3.55742 7.52187 3.55742C8.1043 3.55742 8.69219 3.63672 9.23906 3.78984C9.23906 3.78984 10.5543 2.87109 11.1258 3.05156C11.5004 4.00039 11.268 4.73047 11.1969 4.9082C11.6344 5.39219 11.9023 5.76953 11.9023 6.51875C11.9023 9.15742 10.2918 9.36797 8.76328 9.54023C9.01484 9.75625 9.22813 10.1664 9.22813 10.809C9.22813 11.7305 9.21992 12.8707 9.21992 13.0949C9.21992 13.2727 9.3457 13.4887 9.69297 13.4258C12.4273 12.518 14.2812 9.92305 14.2812 6.89062C14.2812 3.09805 11.2051 0.21875 7.4125 0.21875ZM3.37656 9.64961C3.34102 9.67695 3.34922 9.73984 3.3957 9.7918C3.43945 9.83555 3.50234 9.85469 3.53789 9.81914C3.57344 9.7918 3.56523 9.72891 3.51875 9.67695C3.475 9.6332 3.41211 9.61406 3.37656 9.64961ZM3.08125 9.42812C3.06211 9.46367 3.08945 9.50742 3.14414 9.53477C3.18789 9.56211 3.24258 9.55391 3.26172 9.51562C3.28086 9.48008 3.25352 9.43633 3.19883 9.40898C3.14414 9.39258 3.10039 9.40078 3.08125 9.42812ZM3.96719 10.4016C3.92344 10.4371 3.93984 10.5191 4.00273 10.5711C4.06562 10.634 4.14492 10.6422 4.18047 10.5984C4.21602 10.5629 4.19961 10.4809 4.14492 10.4289C4.08477 10.366 4.00273 10.3578 3.96719 10.4016ZM3.65547 9.99961C3.61172 10.027 3.61172 10.098 3.65547 10.1609C3.69922 10.2238 3.77305 10.2512 3.80859 10.2238C3.85234 10.1883 3.85234 10.1172 3.80859 10.0543C3.77031 9.99141 3.69922 9.96406 3.65547 9.99961Z" fill="#E7E7E8"/>
</g>
</svg>
