<svg width="42" height="38" viewBox="0 0 42 38" fill="none" xmlns="http://www.w3.org/2000/svg">
<g id="Logo">
<path id="Vector" d="M26.2564 15.2695C25.5411 15.4532 24.9505 15.5517 24.3467 15.7682C23.8677 15.8929 23.3821 16.0241 22.8242 16.1685L22.7849 16.1751C22.5093 16.2538 22.483 16.2604 22.2271 15.9651C21.9186 15.6173 21.6955 15.3942 21.2689 15.1842C19.9761 14.5542 18.7293 14.7379 17.5677 15.4926C16.1765 16.3916 15.4612 17.7238 15.4809 19.3776C15.5005 21.0182 16.6227 22.3635 18.1846 22.5866C19.6283 22.7704 20.7964 22.2847 21.7152 21.2413C21.853 21.0707 21.9777 20.8935 22.1155 20.6966C22.168 20.631 22.2139 20.5588 22.2664 20.4801H18.3224C17.8958 20.4801 17.7908 20.2176 17.9352 19.8698C18.1977 19.2332 18.6899 18.1701 18.9786 17.6385C19.0377 17.5204 19.1821 17.2579 19.4315 17.2579H26.0661C26.3614 16.3785 26.8405 15.4926 27.4836 14.6526C28.9733 12.6904 30.7189 11.6667 33.2061 11.2401C35.2929 10.8726 37.2551 11.0761 39.0401 12.2835C40.6545 13.386 41.652 14.8823 41.921 16.8445C42.2688 19.6073 41.4682 21.8516 39.5126 23.7744C38.2198 25.146 36.5661 26.0057 34.6629 26.3928C34.2954 26.4585 33.9345 26.4913 33.5801 26.5241C33.3898 26.5372 33.2061 26.5569 33.0223 26.5766C31.1651 26.5372 29.4655 26.0057 28.0348 24.7785C27.0308 23.9057 26.3352 22.836 25.9939 21.5957C25.7511 22.0747 25.4689 22.5407 25.0752 22.9804C23.6577 24.9228 21.7349 26.1303 19.3068 26.4519C17.2987 26.721 15.4415 26.3338 13.8009 25.1066C12.2915 23.9582 11.4318 22.4488 11.2087 20.5654C10.9396 18.3341 11.5959 16.2735 12.9412 14.5738C14.398 12.6707 16.3208 11.4632 18.6702 11.0367C20.593 10.6298 22.4305 10.912 24.0908 12.0407C25.1736 12.756 25.948 13.7338 26.4599 14.9217C26.5845 15.1054 26.4992 15.2104 26.2564 15.2695ZM3.16967 15.637C3.08764 15.637 3.0673 15.5976 3.10798 15.532L3.53783 14.9807C3.57851 14.9217 3.68089 14.8823 3.76292 14.8823H11.0643C11.1431 14.8823 11.1628 14.9413 11.1234 15.0004L10.7756 15.532C10.7362 15.5976 10.6312 15.6567 10.5721 15.6567L3.16967 15.637ZM0.0817693 17.5204C9.7006e-07 17.5204 -0.0204477 17.4745 0.0204496 17.4154L0.449858 16.8641C0.490808 16.8051 0.593051 16.7591 0.674622 16.7591H10.0012C10.0799 16.7591 10.1193 16.8248 10.0996 16.8838L9.93557 17.376C9.91588 17.4548 9.83714 17.5007 9.75182 17.5007L0.0817693 17.5204ZM4.9691 19.2791C4.92841 19.3382 4.94876 19.3973 5.03013 19.3973L9.48932 19.4169C9.54839 19.4169 9.6337 19.3579 9.6337 19.2791L9.67307 18.7869C9.67307 18.7016 9.6337 18.6426 9.54839 18.6426H5.45997C5.37794 18.6426 5.29657 18.7016 5.25522 18.7673L4.9691 19.2791ZM37.8785 18.0979C37.8654 17.9273 37.8589 17.7829 37.8326 17.6385C37.4651 15.6173 35.6014 14.4688 33.6589 14.9217C31.7558 15.3482 30.5286 16.5557 30.0823 18.4785C29.7148 20.0732 30.4892 21.6876 31.9592 22.3438C33.0879 22.836 34.2101 22.7769 35.2929 22.2191C36.9073 21.3266 37.7867 20.0732 37.8917 18.3144C37.8851 18.2357 37.8851 18.1635 37.8785 18.0979Z" fill="#00ACD7"/>
</g>
</svg>
