<svg width="42" height="44" viewBox="0 0 42 44" fill="none" xmlns="http://www.w3.org/2000/svg">
<g id="Logo">
<g id="Logo_2">
<path id="Vector" d="M15.3054 33.5537C15.3054 33.5537 13.6474 34.518 16.4854 34.8442C19.9235 35.2365 21.6807 35.1802 25.4697 34.4632C25.4697 34.4632 26.4658 35.0877 27.857 35.6287C19.3632 39.2689 8.63409 35.4178 15.3054 33.5537Z" fill="#5382A1"/>
<path id="Vector_2" d="M14.2678 28.8037C14.2678 28.8037 12.4081 30.1802 15.2483 30.4739C18.921 30.8529 21.8214 30.8839 26.8404 29.9174C26.8404 29.9174 27.5345 30.6213 28.6261 31.0061C18.3568 34.009 6.91855 31.2429 14.2678 28.8037Z" fill="#5382A1"/>
<path id="Vector_3" d="M23.0182 20.7464C25.1111 23.1559 22.4683 25.3242 22.4683 25.3242C22.4683 25.3242 27.7824 22.5809 25.3419 19.1457C23.0626 15.9421 21.3146 14.3504 30.7774 8.8623C30.7774 8.8623 15.9239 12.572 23.0182 20.7464Z" fill="#F8981D"/>
<path id="Vector_4" d="M34.2511 37.0671C34.2511 37.0671 35.4781 38.0781 32.8998 38.8602C27.9972 40.3454 12.4945 40.7939 8.18787 38.9194C6.63975 38.246 9.5429 37.3113 10.4561 37.1152C11.4085 36.9087 11.9528 36.9472 11.9528 36.9472C10.2311 35.7343 0.824712 39.3286 7.17479 40.3579C24.4923 43.1663 38.743 39.0933 34.2511 37.0671Z" fill="#5382A1"/>
<path id="Vector_5" d="M16.1031 23.8821C16.1031 23.8821 8.21741 25.7551 13.3106 26.4352C15.4611 26.7231 19.748 26.658 23.7412 26.3234C27.0046 26.0482 30.2814 25.4628 30.2814 25.4628C30.2814 25.4628 29.1308 25.9556 28.2983 26.524C20.2906 28.6301 4.82099 27.6504 9.27447 25.4962C13.0408 23.6755 16.1031 23.8821 16.1031 23.8821Z" fill="#5382A1"/>
<path id="Vector_6" d="M30.2495 31.7892C38.3898 27.5591 34.626 23.4941 31.999 24.0418C31.3551 24.1758 31.0681 24.292 31.0681 24.292C31.0681 24.292 31.3071 23.9174 31.7636 23.7554C36.9608 21.9283 40.9576 29.1443 30.0859 32.0023C30.0859 32.0023 30.2119 31.8898 30.2495 31.7892Z" fill="#5382A1"/>
<path id="Vector_7" d="M25.342 0C25.342 0 29.8502 4.50972 21.0662 11.4444C14.0223 17.0072 19.46 20.1789 21.0633 23.8028C16.9516 20.0932 13.9342 16.8275 15.9585 13.7881C18.9297 9.32653 27.161 7.16342 25.342 0Z" fill="#F8981D"/>
<path id="Vector_8" d="M16.9036 43.2511C24.7173 43.7512 36.716 42.9736 37.0001 39.2764C37.0001 39.2764 36.4538 40.6779 30.5426 41.791C23.8735 43.046 15.6481 42.8995 10.7695 42.0952C10.7695 42.0952 11.7682 42.9218 16.9036 43.2511Z" fill="#5382A1"/>
</g>
</g>
</svg>
