<svg width="42" height="38" viewBox="0 0 32 38" fill="none" xmlns="http://www.w3.org/2000/svg">
<g id="Logo">
<path id="Vector" d="M15.9928 37.0462C15.513 37.0462 15.026 36.9173 14.6034 36.6738L10.1844 34.0597C9.52551 33.6872 9.84781 33.5583 10.0627 33.4867C10.9436 33.1787 11.1227 33.1143 12.0609 32.5771C12.1611 32.5198 12.2901 32.5413 12.3903 32.6058L15.7851 34.6183C15.9069 34.6899 16.0788 34.6899 16.1934 34.6183L29.4217 26.9836C29.5434 26.9119 29.6222 26.7687 29.6222 26.6255V11.356C29.6222 11.2056 29.5434 11.0695 29.4145 10.9907L16.1934 3.36315C16.0716 3.29153 15.9069 3.29153 15.7851 3.36315L2.57117 10.9979C2.44226 11.0695 2.36347 11.2127 2.36347 11.3632V26.6255C2.36347 26.7687 2.44226 26.9119 2.57117 26.9764L6.19517 29.0677C8.16473 30.0489 9.36795 28.8958 9.36795 27.7284V12.6595C9.36795 12.4446 9.53984 12.2799 9.7547 12.2799H11.4306C11.6383 12.2799 11.8174 12.4446 11.8174 12.6595V27.7356C11.8174 30.3569 10.385 31.8609 7.89973 31.8609C7.13339 31.8609 6.53178 31.8609 4.85586 31.0301L1.38944 29.0319C0.529991 28.5377 0 27.6138 0 26.6183V11.356C0 10.3676 0.529991 9.43656 1.38944 8.94238L14.6034 1.30765C15.4414 0.834951 16.5515 0.834951 17.3823 1.30765L30.6106 8.94954C31.47 9.44372 32 10.3676 32 11.3632V26.6255C32 27.6138 31.47 28.5377 30.6106 29.0391L17.3823 36.6738C16.9597 36.9173 16.4799 37.0462 15.9928 37.0462ZM26.6714 21.9988C26.6714 19.1411 24.7377 18.382 20.6768 17.8448C16.5658 17.3005 16.1504 17.0212 16.1504 16.0615C16.1504 15.2665 16.5013 14.2065 19.5452 14.2065C22.2596 14.2065 23.2623 14.7938 23.6777 16.6273C23.7135 16.7991 23.8711 16.9281 24.0501 16.9281H25.769C25.8765 16.9281 25.9767 16.8851 26.0483 16.8063C26.12 16.7275 26.1558 16.6201 26.1486 16.5127C25.8836 13.3542 23.7851 11.886 19.5452 11.886C15.7708 11.886 13.5219 13.476 13.5219 16.1474C13.5219 19.0409 15.7637 19.843 19.3805 20.2011C23.7135 20.6237 24.0501 21.2611 24.0501 22.1134C24.0501 23.5888 22.8612 24.219 20.0752 24.219C16.573 24.219 15.8066 23.3381 15.5488 21.5977C15.5201 21.4115 15.3626 21.2754 15.1692 21.2754H13.4575C13.2426 21.2754 13.0779 21.4473 13.0779 21.655C13.0779 23.8824 14.2883 26.5395 20.0824 26.5395C24.265 26.5324 26.6714 24.8779 26.6714 21.9988Z" fill="#539E43"/>
</g>
</svg>
