<svg width="42" height="42" viewBox="0 0 42 42" fill="none" xmlns="http://www.w3.org/2000/svg">
<g id="Logo">
<path id="Vector" d="M16.9854 20.2488H24.6137C26.7351 20.2488 28.4279 18.4988 28.4279 16.3703V9.092C28.4279 7.02064 26.6851 5.47069 24.6137 5.1207C22.0567 4.69929 19.2782 4.72071 16.9854 5.12784C13.7569 5.69925 13.1712 6.89207 13.1712 9.09915V12.0062H20.8067V12.9776H10.307C8.08567 12.9776 6.14287 14.3133 5.53575 16.8489C4.83577 19.7559 4.8072 21.5702 5.53575 24.6058C6.07859 26.8629 7.37141 28.4771 9.59276 28.4771H12.2141V24.9915C12.2141 22.4701 14.3926 20.2488 16.9854 20.2488ZM16.5068 10.0634C15.714 10.0634 15.0712 9.41342 15.0712 8.61345C15.0783 7.80633 15.714 7.15635 16.5068 7.15635C17.2925 7.15635 17.9425 7.81347 17.9425 8.61345C17.9425 9.41342 17.2997 10.0634 16.5068 10.0634Z" fill="#3775A9"/>
<path id="Vector_2" d="M36.4136 16.8488C35.8636 14.6418 34.8208 12.9775 32.5994 12.9775H29.7353V16.3631C29.7353 18.9916 27.5068 21.2058 24.964 21.2058H17.3356C15.25 21.2058 13.5215 22.9915 13.5215 25.0843V32.3555C13.5215 34.4269 15.3214 35.6411 17.3356 36.2339C19.7499 36.9411 22.0712 37.0696 24.964 36.2339C26.8853 35.6768 28.7781 34.5554 28.7781 32.3555V29.4484H21.157V28.477H32.5994C34.8208 28.477 35.6422 26.9271 36.4136 24.6057C37.2136 22.213 37.1779 19.913 36.4136 16.8488ZM25.4425 31.3841C26.2354 31.3841 26.8782 32.0341 26.8782 32.834C26.8782 33.6412 26.2354 34.2911 25.4425 34.2911C24.6568 34.2911 24.0069 33.634 24.0069 32.834C24.014 32.0269 24.6568 31.3841 25.4425 31.3841Z" fill="#FFD242"/>
</g>
</svg>
